<?xml version="1.0" encoding="UTF-8" standalone="no"?>
<svg
   xmlns:dc="http://purl.org/dc/elements/1.1/"
   xmlns:cc="http://creativecommons.org/ns#"
   xmlns:rdf="http://www.w3.org/1999/02/22-rdf-syntax-ns#"
   xmlns:svg="http://www.w3.org/2000/svg"
   xmlns="http://www.w3.org/2000/svg"
   xmlns:sodipodi="http://sodipodi.sourceforge.net/DTD/sodipodi-0.dtd"
   xmlns:inkscape="http://www.inkscape.org/namespaces/inkscape"
   sodipodi:docname="bee.svg"
   inkscape:version="1.0 (4035a4fb49, 2020-05-01)"
   id="svg8398"
   version="1.1"
   viewBox="0 0 14.620678 12.550547"
   height="12.550547mm"
   width="14.620678mm">
  <defs
     id="defs8392" />
  <sodipodi:namedview
     inkscape:window-maximized="0"
     inkscape:window-y="0"
     inkscape:window-x="2102"
     inkscape:window-height="1032"
     inkscape:window-width="1274"
     fit-margin-bottom="0"
     fit-margin-right="0"
     fit-margin-left="0"
     fit-margin-top="0"
     showgrid="false"
     inkscape:document-rotation="0"
     inkscape:current-layer="layer1"
     inkscape:document-units="mm"
     inkscape:cy="55.824652"
     inkscape:cx="17.042951"
     inkscape:zoom="5.6"
     inkscape:pageshadow="2"
     inkscape:pageopacity="0.0"
     borderopacity="1.0"
     bordercolor="#666666"
     pagecolor="#ffffff"
     id="base" />
  <metadata
     id="metadata8395">
    <rdf:RDF>
      <cc:Work
         rdf:about="">
        <dc:format>image/svg+xml</dc:format>
        <dc:type
           rdf:resource="http://purl.org/dc/dcmitype/StillImage" />
        <dc:title></dc:title>
      </cc:Work>
    </rdf:RDF>
  </metadata>
  <g
     transform="translate(-113.64204,-101.82592)"
     id="layer1"
     inkscape:groupmode="layer"
     inkscape:label="Layer 1">
    <g
       id="g8373"
       transform="matrix(0.26458333,0,0,0.26458333,37.605277,24.492095)">
      <path
         stroke="none"
         fill="#eeeeee"
         d="m 287.6,300.75 q -0.8,-2.05 1.35,-3.3 l 7.65,-4.5 q 3.1,-1.7 5.6,2.5 l 5.25,9.05 -1.2,-0.05 -4.05,-7 q -2.5,-4.2 -5.6,-2.5 l -7.65,4.5 q -0.95,0.55 -1.35,1.3"
         id="path7946" />
      <path
         stroke="none"
         fill="#ffffff"
         d="m 316.35,306.05 11.7,-11.65 q 3.55,-3.65 6.25,-1 l 6.45,6.45 q 1.5,1.45 0.8,3.05 l -0.5,0.75 -2,1.7 -15.25,10.2 h -0.05 q -1.05,0.75 -2.1,0.75 -1.1,-0.1 -1.95,-0.95 l -1.7,-1.7 -2.8,-2.8 q -0.95,-0.95 -0.9,-1.85 0.05,-0.65 0.55,-1.35 l 0.4,-0.5 1.1,-1.1"
         id="path7948" />
      <path
         stroke="none"
         fill="#dbdbdb"
         d="m 341.05,303.65 1.1,1.85 q 0.8,1.45 0.3,2.6 -0.7,1.4 -3.4,2.3 l -9.95,3.4 -2.15,0.7 -0.1,0.05 -3.05,1 15.25,-10.2 2,-1.7 m -47.15,4.9 -4.8,-5.5 -1.4,-2.1 -0.1,-0.2 q 0.4,-0.75 1.35,-1.3 l 7.65,-4.5 q 3.1,-1.7 5.6,2.5 l 4.05,7 -1.45,-0.05 -2.3,0.15 q -4.85,0.2 -8.4,3.75 l -0.2,0.25"
         id="path7950" />
      <path
         stroke="none"
         fill="#ffd841"
         d="m 293.9,308.55 q -2.3,4.5 -3.6,9.95 l -0.05,-1 q 0.05,-4.55 2.75,-7.95 l 0.9,-1 m 13.55,-4.05 5.35,0.7 3.55,0.85 -1.1,1.1 -0.4,0.5 -2.05,-0.45 -5.35,-0.7 -1.2,-2.05 1.2,0.05 m 21.65,9.3 1.2,1.6 q 2,2.95 2.8,6.7 l -0.4,0.45 q -0.95,-3.25 -4.45,-6.7 l -1.4,-1.3 0.15,0.05 -0.05,-0.1 2.15,-0.7"
         id="path7952" />
      <path
         stroke="none"
         fill="#ffcc00"
         d="m 333.6,328.7 q -0.55,10.6 -9.8,11 -3.05,0.15 -5.1,-0.8 8.25,-3.75 14.9,-10.2 m -17.9,7.9 q -1.4,-2 -1.75,-5.15 8.65,-7.55 12.9,-16.9 l 0.1,-0.05 0.05,0.1 -0.15,-0.05 1.4,1.3 q 3.5,3.45 4.45,6.7 -8.25,8.25 -17,14.05 m -5,-8.4 q -3.25,2.25 -7.45,2.25 -2.7,0.05 -5,-0.9 -2.3,-0.95 -4.2,-2.85 l -1.55,-1.85 q -1.95,-2.85 -2.2,-6.35 1.3,-5.45 3.6,-9.95 l -0.9,1 0.9,-1 0.2,-0.25 q 3.55,-3.55 8.4,-3.75 l 2.3,-0.15 1.45,0.05 1.2,2.05 5.35,0.7 2.05,0.45 q -0.5,0.7 -0.55,1.35 -0.05,0.9 0.9,1.85 l 2.8,2.8 q -2.35,7.4 -7.3,14.55 m -13.25,-11 q -1.1,1.1 -1.1,2.6 0,1.45 1.1,2.55 1.05,1.05 2.55,1.05 1.5,0 2.55,-1.05 1.1,-1.1 1.1,-2.55 0,-1.5 -1.1,-2.6 -1.05,-1.05 -2.55,-1.05 -1.5,0 -2.55,1.05"
         id="path7954" />
      <path
         stroke="none"
         fill="#666666"
         d="m 333.1,322.1 0.4,3.2 0.1,3.4 q -6.65,6.45 -14.9,10.2 -1.9,-0.75 -3,-2.3 8.75,-5.8 17,-14.05 l 0.4,-0.45 m -19.15,9.35 -0.1,-0.5 -0.05,-0.05 -0.4,-2.25 q -0.35,-1.1 -1,-1.9 l -1.7,1.45 q 4.95,-7.15 7.3,-14.55 l 1.7,1.7 q 0.85,0.85 1.95,0.95 1.05,0 2.1,-0.75 h 0.05 l 3.05,-1 q -4.25,9.35 -12.9,16.9"
         id="path7956" />
      <path
         stroke="none"
         fill="#b69100"
         d="m 297.45,317.2 q 1.05,-1.05 2.55,-1.05 1.5,0 2.55,1.05 1.1,1.1 1.1,2.6 0,1.45 -1.1,2.55 -1.05,1.05 -2.55,1.05 -1.5,0 -2.55,-1.05 -1.1,-1.1 -1.1,-2.55 0,-1.5 1.1,-2.6"
         id="path7958" />
      <path
         stroke="none"
         fill="#585858"
         d="m 298.25,329.55 -0.75,1.3 q -1.15,2 -3.15,0.9 l -2.35,-1.35 -1,-0.9 q -0.6,-0.95 0.15,-2.3 l 1.35,-2.35 1.55,1.85 q 1.9,1.9 4.2,2.85"
         id="path7960" />
    </g>
  </g>
</svg>
